<svg xmlns="http://www.w3.org/2000/svg" xmlns:xlink="http://www.w3.org/1999/xlink" width="182" height="206">
  <defs>
    <path id="a" d="M20.5895 6.0528c3.0149 5.2223 1.2257 11.8998-3.9966 14.9148-5.222 3.0149-11.8995 1.2257-14.9148-3.9963C-1.3368 11.749.4524 5.0714 5.6747 2.0565c5.222-3.0152 11.8996-1.226 14.9148 3.9963"/>
    <linearGradient id="b" x1="-1642.91468%" x2="-1642.91468%" y1="-246.048692%" y2="674.265959%">
      <stop offset="0%" stop-color="#00ADEE"/>
      <stop offset="100%" stop-color="#2D3092"/>
    </linearGradient>
    <path id="d" d="M3.0093 136.9136l4.9025-2.8304c1.5979-.223-4.4969 4.9887-2.1439 4.6577L2.433 139.875l-1.7104.9873V46.8575l.5762-.3325L80.4328.837 81 .5096l.5669.3274 79.134 45.688 1.7096.987-1.7096.9871-82.2765 47.5021c.601-1.309.7538-2.2887.2991-2.8012h-.0003l79.134-45.688L81 3.1385 3.0093 48.1663v88.7473z"/>
    <linearGradient id="e" x1="-124.737473%" x2="-124.737473%" y1="-12.5795941%" y2="130.631181%">
      <stop offset="0%" stop-color="#00ADEE"/>
      <stop offset="100%" stop-color="#2D3092"/>
    </linearGradient>
    <path id="g" d="M81.1432.8241v3.096l-2.2867 3.9608V.8241h2.2867zm0 83.5038v7.2179l7.2799 4.2032c-1.2736.117-2.4017.3424-3.3607.6879l-3.9192-2.2626v87.4273l75.714-43.7136-4.7041-2.7159 5.8374.7415V46.512h2.2867v90.7217l1.1333.6543-1.7096.987-79.134 45.688-1.7104.9876V92.8542L.2988 47.4991 1.433 45.525l77.4235 44.7007v-2.4373l.5769 3.4246 1.7098-6.8851z"/>
    <linearGradient id="h" x1="-125.541224%" x2="-125.541224%" y1="-10.6118863%" y2="98.8827029%">
      <stop offset="0%" stop-color="#00ADEE"/>
      <stop offset="100%" stop-color="#2D3092"/>
    </linearGradient>
    <path id="j" d="M79.4328 48.563L.2988 2.875 1.433.9009l79.1339 45.688z"/>
    <linearGradient id="k" x1="-151.265571%" x2="-151.265571%" y1="-328.89046%" y2="100%">
      <stop offset="0%" stop-color="#00ADEE"/>
      <stop offset="100%" stop-color="#2D3092"/>
    </linearGradient>
    <path id="m" d="M20.5895 6.429c3.0149 5.222 1.2257 11.8999-3.9966 14.9148-5.222 3.0149-11.8995 1.2257-14.9148-3.9966C-1.3368 12.1252.4524 5.4477 5.6747 2.4324c5.222-3.0149 11.8996-1.2257 14.9148 3.9966"/>
    <linearGradient id="n" x1="-1642.91468%" x2="-1642.91468%" y1="-664.42782%" y2="255.883468%">
      <stop offset="0%" stop-color="#00ADEE"/>
      <stop offset="100%" stop-color="#2D3092"/>
    </linearGradient>
    <path id="p" d="M20.4555 6.117c3.015 5.222 1.2257 11.8995-3.9965 14.9147-5.222 3.015-11.8996 1.2257-14.9148-3.9965C-1.4707 11.8132.3185 5.1356 5.5408 2.1204 10.7627-.8945 17.4406.8947 20.4555 6.117"/>
    <linearGradient id="q" x1="-918.26215%" x2="-918.26215%" y1="-875.580455%" y2="48.6541962%">
      <stop offset="0%" stop-color="#00ADEE"/>
      <stop offset="100%" stop-color="#2D3092"/>
    </linearGradient>
    <path id="s" d="M21.3216 6.429c3.0149 5.222 1.2257 11.8999-3.9963 14.9148-5.2223 3.0149-11.8999 1.2257-14.9151-3.9966-3.0149-5.222-1.2257-11.8995 3.9966-14.9148C11.6291-.5825 18.3066 1.2067 21.3216 6.429"/>
    <linearGradient id="t" x1="-193.605157%" x2="-193.605157%" y1="-664.42782%" y2="255.883468%">
      <stop offset="0%" stop-color="#00ADEE"/>
      <stop offset="100%" stop-color="#2D3092"/>
    </linearGradient>
    <path id="v" d="M21.3216 6.0528c3.0149 5.2223 1.2257 11.8998-3.9963 14.9148-5.2223 3.0149-11.8999 1.2257-14.9151-3.9963C-.6047 11.749 1.1845 5.0714 6.4068 2.0565 11.6291-.9587 18.3066.8305 21.3216 6.0528"/>
    <linearGradient id="w" x1="-193.605157%" x2="-193.605157%" y1="-246.048692%" y2="674.265959%">
      <stop offset="0%" stop-color="#00ADEE"/>
      <stop offset="100%" stop-color="#2D3092"/>
    </linearGradient>
    <path id="y" d="M20.4555 5.7408c3.015 5.2222 1.2257 11.8998-3.9965 14.9147-5.222 3.0152-11.8996 1.226-14.9148-3.9963C-1.4707 11.437.3185 4.7594 5.5408 1.7445c5.2219-3.015 11.8998-1.2257 14.9147 3.9963"/>
    <linearGradient id="z" x1="-918.26215%" x2="-918.26215%" y1="-455.241084%" y2="465.075908%">
      <stop offset="0%" stop-color="#00ADEE"/>
      <stop offset="100%" stop-color="#2D3092"/>
    </linearGradient>
    <path id="B" d="M20.4555 6.3648c3.015 5.2223 1.2257 11.8999-3.9965 14.9148-5.222 3.0149-11.8999 1.2257-14.9148-3.9963C-1.4707 12.061.3185 5.3835 5.5408 2.3683c5.2219-3.015 11.8995-1.2257 14.9147 3.9965"/>
    <linearGradient id="C" x1="-918.26215%" x2="-918.26215%" y1="-36.8579229%" y2="883.455104%">
      <stop offset="0%" stop-color="#00ADEE"/>
      <stop offset="100%" stop-color="#2D3092"/>
    </linearGradient>
  </defs>
  <g fill="none" fill-rule="evenodd">
    <g transform="translate(159 45.6)">
      <mask id="c" fill="#fff">
        <use xlink:href="#a"/>
      </mask>
      <path fill="url(#b)" d="M20.5895 6.0528c3.0149 5.2223 1.2257 11.8998-3.9966 14.9148-5.222 3.0149-11.8995 1.2257-14.9148-3.9963C-1.3368 11.749.4524 5.0714 5.6747 2.0565c5.222-3.0152 11.8996-1.226 14.9148 3.9963" mask="url(#c)"/>
    </g>
    <g transform="translate(10 9.6)">
      <mask id="f" fill="#fff">
        <use xlink:href="#d"/>
      </mask>
      <path fill="url(#e)" d="M3.0093 136.9136l4.9025-2.8304c1.5979-.223-4.4969 4.9887-2.1439 4.6577L2.433 139.875l-1.7104.9873V46.8575l.5762-.3325L80.4328.837 81 .5096l.5669.3274 79.134 45.688 1.7096.987-1.7096.9871-82.2765 47.5021c.601-1.309.7538-2.2887.2991-2.8012h-.0003l79.134-45.688L81 3.1385 3.0093 48.1663v88.7473z" mask="url(#f)"/>
    </g>
    <g transform="translate(11 10.6)">
      <mask id="i" fill="#fff">
        <use xlink:href="#g"/>
      </mask>
      <path fill="url(#h)" d="M81.1432.8241v3.096l-2.2867 3.9608V.8241h2.2867zm0 83.5038v7.2179l7.2799 4.2032c-1.2736.117-2.4017.3424-3.3607.6879l-3.9192-2.2626v87.4273l75.714-43.7136-4.7041-2.7159 5.8374.7415V46.512h2.2867v90.7217l1.1333.6543-1.7096.987-79.134 45.688-1.7104.9876V92.8542L.2988 47.4991 1.433 45.525l77.4235 44.7007v-2.4373l.5769 3.4246 1.7098-6.8851z" mask="url(#i)"/>
    </g>
    <g transform="translate(11 146.6)">
      <mask id="l" fill="#fff">
        <use xlink:href="#j"/>
      </mask>
      <path fill="url(#k)" d="M79.4328 48.563L.2988 2.875 1.433.9009l79.1339 45.688z" mask="url(#l)"/>
    </g>
    <g transform="translate(159 136.6)">
      <mask id="o" fill="#fff">
        <use xlink:href="#m"/>
      </mask>
      <path fill="url(#n)" d="M20.5895 6.429c3.0149 5.222 1.2257 11.8999-3.9966 14.9148-5.222 3.0149-11.8995 1.2257-14.9148-3.9966C-1.3368 12.1252.4524 5.4477 5.6747 2.4324c5.222-3.0149 11.8996-1.2257 14.9148 3.9966" mask="url(#o)"/>
    </g>
    <g transform="translate(80 182.6)">
      <mask id="r" fill="#fff">
        <use xlink:href="#p"/>
      </mask>
      <path fill="url(#q)" d="M20.4555 6.117c3.015 5.222 1.2257 11.8995-3.9965 14.9147-5.222 3.015-11.8996 1.2257-14.9148-3.9965C-1.4707 11.8132.3185 5.1356 5.5408 2.1204 10.7627-.8945 17.4406.8947 20.4555 6.117" mask="url(#r)"/>
    </g>
    <g transform="translate(0 136.6)">
      <mask id="u" fill="#fff">
        <use xlink:href="#s"/>
      </mask>
      <path fill="url(#t)" d="M21.3216 6.429c3.0149 5.222 1.2257 11.8999-3.9963 14.9148-5.2223 3.0149-11.8999 1.2257-14.9151-3.9966-3.0149-5.222-1.2257-11.8995 3.9966-14.9148C11.6291-.5825 18.3066 1.2067 21.3216 6.429" mask="url(#u)"/>
    </g>
    <g transform="translate(0 45.6)">
      <mask id="x" fill="#fff">
        <use xlink:href="#v"/>
      </mask>
      <path fill="url(#w)" d="M21.3216 6.0528c3.0149 5.2223 1.2257 11.8998-3.9963 14.9148-5.2223 3.0149-11.8999 1.2257-14.9151-3.9963C-.6047 11.749 1.1845 5.0714 6.4068 2.0565 11.6291-.9587 18.3066.8305 21.3216 6.0528" mask="url(#x)"/>
    </g>
    <g transform="translate(80 91.6)">
      <mask id="A" fill="#fff">
        <use xlink:href="#y"/>
      </mask>
      <path fill="url(#z)" d="M20.4555 5.7408c3.015 5.2222 1.2257 11.8998-3.9965 14.9147-5.222 3.0152-11.8996 1.226-14.9148-3.9963C-1.4707 11.437.3185 4.7594 5.5408 1.7445c5.2219-3.015 11.8998-1.2257 14.9147 3.9963" mask="url(#A)"/>
    </g>
    <g transform="translate(80 -.4)">
      <mask id="D" fill="#fff">
        <use xlink:href="#B"/>
      </mask>
      <path fill="url(#C)" d="M20.4555 6.3648c3.015 5.2223 1.2257 11.8999-3.9965 14.9148-5.222 3.0149-11.8999 1.2257-14.9148-3.9963C-1.4707 12.061.3185 5.3835 5.5408 2.3683c5.2219-3.015 11.8995-1.2257 14.9147 3.9965" mask="url(#D)"/>
    </g>
  </g>
</svg>
