<?xml version="1.0" encoding="UTF-8"?>
<svg width="94px" height="28px" viewBox="0 0 94 28" version="1.1" xmlns="http://www.w3.org/2000/svg" xmlns:xlink="http://www.w3.org/1999/xlink">
    <!-- Generator: Sketch 53.2 (72643) - https://sketchapp.com -->
    <title>Artboard</title>
    <desc>Created with Sketch.</desc>
    <g id="Artboard" stroke="none" stroke-width="1" fill="none" fill-rule="evenodd">
        <g id="urbit" transform="translate(1.000000, 1.000000)" fill-rule="nonzero">
            <circle id="Oval" stroke="#FFFFFF" stroke-width="2" cx="13" cy="13" r="13"></circle>
            <path d="M19,11.0488 L16.6306,11.0488 C16.4522,12.0976 15.9936,12.7317 15.1783,12.7317 C13.7006,12.7317 12.8599,11 10.5669,11 C8.3503,11 7.1783,12.3659 7,14.9756 L9.3694,14.9756 C9.5478,13.9024 10.0064,13.2683 10.8471,13.2683 C12.3248,13.2683 13.1146,15 15.4586,15 C17.6242,15 18.8217,13.6341 19,11.0488 Z" id="Path" fill="#FFFFFF"></path>
        </g>
        <g id="Urbit-2" transform="translate(35.000000, 4.000000)" fill="#FFFFFE" fill-rule="nonzero">
            <path d="M12.7567459,0.595903166 L15.1106692,0.595903166 L15.1106692,13.2216015 C15.1106692,17.5046555 11.6557172,20 7.55533462,20 C3.45495201,20 0,17.5046555 0,13.2216015 L0,0.595903166 L2.35392335,0.595903166 L2.35392335,13.2216015 C2.35392335,16.2011173 4.78377971,17.839851 7.55533462,17.839851 C10.3268895,17.839851 12.7567459,16.2011173 12.7567459,13.2216015 L12.7567459,0.595903166 Z M19.5148028,19.6648045 L19.5148028,5.36312849 L21.6788936,5.36312849 L21.6788936,7.52327747 L21.8307596,7.52327747 C22.3622907,6.10800745 23.8809509,5.1396648 25.6274102,5.1396648 C25.9596171,5.1396648 26.548098,5.15828678 26.8043719,5.17690875 L26.8043719,7.41154562 C26.6525059,7.37430168 26.0355501,7.26256983 25.4375777,7.26256983 C23.3114534,7.26256983 21.7548266,8.67783985 21.7548266,10.6145251 L21.7548266,19.6648045 L19.5148028,19.6648045 Z M29.7657688,19.6648045 L29.7657688,0.595903166 L32.0057926,0.595903166 L32.0057926,7.63500931 L32.1956252,7.63500931 C32.6891897,6.89013035 33.5624194,5.17690875 36.4099073,5.17690875 C40.0926583,5.17690875 42.6364142,8.04469274 42.6364142,12.5512104 C42.6364142,17.0949721 40.0926583,19.9627561 36.4478738,19.9627561 C33.6383524,19.9627561 32.6891897,18.2495345 32.1956252,17.4674115 L31.9298596,17.4674115 L31.9298596,19.6648045 L29.7657688,19.6648045 Z M31.9678261,12.5139665 C31.9678261,15.7541899 33.4485198,17.9888268 36.1441417,17.9888268 C38.9536632,17.9888268 40.3963904,15.5679702 40.3963904,12.5139665 C40.3963904,9.4972067 38.9916297,7.15083799 36.1441417,7.15083799 C33.4105533,7.15083799 31.9678261,9.31098696 31.9678261,12.5139665 Z M46.0534155,19.6648045 L46.0534155,5.36312849 L48.2934394,5.36312849 L48.2934394,19.6648045 L46.0534155,19.6648045 Z M47.1924107,2.97951583 C46.3191811,2.97951583 45.5978175,2.30912477 45.5978175,1.48975791 C45.5978175,0.670391061 46.3191811,0 47.1924107,0 C48.0656403,0 48.7870039,0.670391061 48.7870039,1.48975791 C48.7870039,2.30912477 48.0656403,2.97951583 47.1924107,2.97951583 Z M58.7342345,5.36312849 L58.7342345,7.22532588 L55.620981,7.22532588 L55.620981,15.5679702 C55.620981,17.4301676 56.5701436,17.7281192 57.5572728,17.7281192 C58.0508374,17.7281192 58.3545694,17.6536313 58.5444019,17.6163873 L59,19.5903166 C58.696268,19.7020484 58.1647369,19.8510242 57.3294738,19.8510242 C55.4311485,19.8510242 53.3809572,18.6592179 53.3809572,16.1638734 L53.3809572,7.22532588 L51.1788998,7.22532588 L51.1788998,5.36312849 L53.3809572,5.36312849 L53.3809572,1.93668529 L55.620981,1.93668529 L55.620981,5.36312849 L58.7342345,5.36312849 Z" id="Urbit"></path>
        </g>
    </g>
</svg>