<?xml version="1.0" encoding="UTF-8"?>
<svg width="2217px" height="642px" viewBox="0 0 2217 642" version="1.1" xmlns="http://www.w3.org/2000/svg" xmlns:xlink="http://www.w3.org/1999/xlink">
    <!-- Generator: Sketch 53.2 (72643) - https://sketchapp.com -->
    <title>mew-logo</title>
    <desc>Created with Sketch.</desc>
    <g id="mew-logo" stroke="none" stroke-width="1" fill="none" fill-rule="evenodd">
        <g id="mew" transform="translate(0.000000, 0.000000)">
            <path d="M320.88,641.67 C143.933489,641.67 0.49,498.226511 0.49,321.28 C0.49,144.333489 143.933489,0.89 320.88,0.89 C497.826511,0.89 641.27,144.333489 641.27,321.28 C641.27,498.226511 497.826511,641.67 320.88,641.67 Z M344.28,425 C336.61209,426.812276 328.75916,427.725096 320.88,427.72 C265,427.7 217.46,385.14 214,322 C213.57,314.09 218,293.62 219.76,286.22 L133.34,249.41 C124.53,271.71 119.69,301.07 119.69,326.5 C119.69,434.81 212.55,522.61 320.86,522.61 C345.761826,522.641141 370.440511,517.916519 393.57,508.69 L344.28,425 Z M320.88,120 C292.705233,119.961622 264.855388,126.016678 239.24,137.75 L287.92,220.41 C298.537768,216.754929 309.690737,214.896101 320.92,214.91 C370.39,214.91 422.84,256.4 427.92,307.44 L287.15,308 L506.52,401 C518,376 521.74,346.9 521.74,317.69 C521.74,209.38 429.19,120 320.88,120 Z" id="Combined-Shape" fill="#FFFFFF" fill-rule="nonzero"></path>
            <g id="Group" transform="translate(239.000000, 120.000000)"></g>
            <polygon id="Path" fill="#FFFFFF" fill-rule="nonzero" points="1120.95036 517 1120.95036 243.581786 1014.76788 447.142522 971.251095 447.142522 865.068613 243.581786 865.068613 517 785 517 785 104 870.875912 104 992.715328 338.969966 1115.71241 104 1201 104 1201 517"></polygon>
            <polygon id="Path" fill="#FFFFFF" fill-rule="nonzero" points="1564 446.609839 1564 517 1277 517 1277 104 1558.8019 104 1558.8019 174.390161 1357.33258 174.390161 1357.33258 273.849555 1531.38333 273.849555 1531.38333 338.988991 1357.33258 338.988991 1357.33258 446.609839"></polygon>
            <polygon id="Path" fill="#FFFFFF" fill-rule="nonzero" points="1790.22952 105.160486 1863.97567 105.160486 1910.43024 241.850569 1956.88481 105.160486 2031.20072 105.160486 1960.93011 293.026118 2013.19625 425.055231 2129.90243 104 2217 104 2049.20519 517 1981.85936 517 1910.44923 343.668985 1839.00112 517 1771.6363 517 1605 104.038049 1690.93905 104.038049 1808.23399 425.093279 1859.32262 293.064167"></polygon>
        </g>
    </g>
</svg>