<svg viewBox="0 0 656 139" class="Header-title-logo" version="1.1" xmlns="http://www.w3.org/2000/svg" xmlns:xlink="http://www.w3.org/1999/xlink"><g fill="none" fill-rule="evenodd"><path d="M167.866 133.145a78.879 78.879 0 0 0 6.082 5H.213v-5h167.653zm47.69 0h439.657v5H209.49a83.964 83.964 0 0 0 4.753-3.853l1.313-1.147z" fill="#CF8A00"></path><path d="M207.118 117.577c-4.069 4.253-8.842 8.014-14.186 11.176-1.185.7-1.46.542-1.775.354-5.668-3.323-10.315-6.876-14.206-10.862-7.916-8.11-13.44-17.971-16.889-30.145-2.237-7.898-3.568-16.453-4.186-26.92-.063-1.06.367-1.09.82-1.122 5.028-.355 9.25-2.431 12.714-4.416 1.703-.975 3.367-2.017 4.978-3.026 2.031-1.272 3.95-2.476 5.95-3.56 2.69-1.458 5.55-2.804 8.315-4.107 1.05-.493 2.097-.987 3.141-1.488 4.764 1.899 9.65 4.453 15.542 8.117v-7.645c-4.976-2.921-9.343-5.075-13.689-6.768l-.173-.067c-1.219-.628-2.55-.558-3.966.208a391.04 391.04 0 0 1-3.64 1.729c-2.848 1.342-5.794 2.729-8.646 4.275-2.18 1.182-4.277 2.496-6.305 3.766-1.556.976-3.164 1.982-4.755 2.894-2.966 1.698-6.222 3.306-9.927 3.567-4.315.306-7.146 3.607-6.884 8.029.646 10.952 2.051 19.949 4.421 28.317 3.753 13.248 9.805 24.018 18.502 32.928 4.303 4.41 9.398 8.314 15.576 11.936 1.201.704 2.452 1.056 3.746 1.056 1.502 0 3.062-.475 4.666-1.424a74.555 74.555 0 0 0 11.074-7.996l-.218-8.806z" fill="red"></path><path d="M207.118 117.577c-4.069 4.253-8.842 8.014-14.186 11.176-1.185.7-1.46.542-1.775.354-5.668-3.323-10.315-6.876-14.206-10.862-7.916-8.11-13.44-17.971-16.889-30.145-2.237-7.898-3.568-16.453-4.186-26.92-.063-1.06.367-1.09.82-1.122 5.028-.355 9.25-2.431 12.714-4.416 1.703-.975 3.367-2.017 4.978-3.026 2.031-1.272 3.95-2.476 5.95-3.56 2.69-1.458 5.55-2.804 8.315-4.107 1.05-.493 2.097-.987 3.141-1.488 4.764 1.899 9.65 4.453 15.542 8.117v-7.645c-4.976-2.921-9.343-5.075-13.689-6.768l-.173-.067c-1.219-.628-2.55-.558-3.966.208a391.04 391.04 0 0 1-3.64 1.729c-2.848 1.342-5.794 2.729-8.646 4.275-2.18 1.182-4.277 2.496-6.305 3.766-1.556.976-3.164 1.982-4.755 2.894-2.966 1.698-6.222 3.306-9.927 3.567-4.315.306-7.146 3.607-6.884 8.029.646 10.952 2.051 19.949 4.421 28.317 3.753 13.248 9.805 24.018 18.502 32.928 4.303 4.41 9.398 8.314 15.576 11.936 1.201.704 2.452 1.056 3.746 1.056 1.502 0 3.062-.475 4.666-1.424a74.555 74.555 0 0 0 11.074-7.996l-.218-8.806zM76.155 121.444H.214v-12.409l47.029-59.19H3.812V34.583h69.24v12.533L25.65 106.181h50.504z" fill="#000"></path><path fill="#CF8A00" d="M72.943 121.444V34.583h57.7v15.262H92.176v21.343h33.38v15.264h-33.38v34.992z"></path><path d="M299.321 33.99c13.038 0 22.14 4.429 30.996 11.07l-9.47 14.146c-4.675-3.445-12.424-7.872-20.91-7.75-20.91 0-28.045 14.76-28.045 27.183 0 15.498 10.947 26.692 26.568 26.692 5.29 0 11.316-.984 15.867-3.198v-12.3h-21.77V74.58h39.605v35.055c-12.792 11.439-25.707 13.16-33.579 13.16-26.445 0-45.757-20.048-45.757-44.403 0-23.984 17.713-44.403 46.495-44.403M364.017 72.12c2.092-11.438 11.81-15.128 17.344-15.128 2.091 0 2.706.123 4.674.49v18.082c-2.583-.614-5.905-.86-7.749-.86-6.888 0-13.777 4.059-13.777 12.423v34.317h-18.327v-63.1h17.835v13.777zM425.885 107.914c8.98 0 16.483-5.781 16.483-17.22 0-11.685-7.012-18.82-16.974-18.82-10.087 0-15.745 8.119-15.745 17.836 0 10.086 6.15 18.204 16.236 18.204zm34.317-49.57v63.1h-18.327v-9.224c-4.55 6.518-10.577 10.577-19.803 10.577-19.188 0-30.75-14.76-30.75-33.21 0-17.712 10.702-32.595 30.382-32.595 8.486 0 15.868 4.182 20.171 9.963v-8.61h18.327zM475.945 58.344h18.327v8.61c5.29-7.38 11.931-9.963 19.557-9.963 17.713 0 22.51 14.145 22.51 30.135v34.318h-18.328V87.495c0-8.733-3.198-15.375-11.685-15.375s-12.054 6.765-12.054 15.498v33.826h-18.327v-63.1zM573.237 58.344h17.466v14.392h-17.466v29.52c0 2.705 1.107 5.534 4.674 5.534s4.798-2.952 4.798-5.904c0-1.845-.493-4.428-.862-5.41h14.514c1.107 2.336 1.477 5.288 1.477 7.502 0 9.347-6.15 18.818-21.034 18.818-11.07 0-21.894-3.935-21.894-22.263V72.736h-9.47V58.344h10.823l2.83-15.498h14.144v15.498zM615.303 99.18c1.845 7.258 8.24 9.472 13.284 9.472 4.058 0 8.24-1.6 8.24-4.797 0-2.09-1.23-3.568-4.673-4.797l-11.07-4.675c-15.006-5.289-15.744-15.252-15.744-18.08 0-12.67 11.192-19.31 24.722-19.31 7.259 0 16.851 1.966 22.756 13.283l-14.145 6.518c-1.6-5.043-6.15-6.027-8.979-6.027-3.444 0-7.011 1.97-7.011 5.166 0 2.706 2.706 4.183 5.904 5.412l9.47 3.69c14.885 4.305 16.236 14.023 16.236 18.205 0 12.915-11.93 19.556-25.83 19.556-9.347 0-22.14-2.95-26.444-16.112l13.284-7.504zM162.716 43.95c1.493-.854 3.03-1.818 4.518-2.75 1.972-1.236 4.012-2.507 6.198-3.715l.044-5.441c.042-5.202 2.015-10.065 5.557-13.69 3.478-3.56 8.082-5.472 12.905-5.454 10.098.088 18.243 8.824 18.157 19.473l-.041 5.123a170.603 170.603 0 0 1 6.312 3.842c2.13 1.358 4.035 2.527 5.848 3.443l.099-12.31c.14-17.381-13.438-31.643-30.268-31.79-8.25-.1-15.927 3.172-21.751 9.133-5.76 5.896-8.97 13.755-9.036 22.13l-.102 12.633.426.004c.37-.2.746-.408 1.134-.63M227.986 53.693c-5.031-.409-9.283-2.7-14.112-5.729v7.621c4.237 2.404 8.498 4.202 13.502 4.586.052.047.256.375.217.995a207.028 207.028 0 0 1-.474 6.205c-1.028 11.051-3.161 20.525-6.522 28.96a68.456 68.456 0 0 1-6.723 12.794v10.738c5.33-6.09 9.632-13.174 12.796-21.112 3.596-9.026 5.872-19.092 6.958-30.776.184-1.973.343-4.067.489-6.402.26-4.186-2.375-7.573-6.131-7.88" fill="#000"></path><path d="M227.986 53.693c-5.031-.409-9.283-2.7-14.112-5.729v7.621c4.237 2.404 8.498 4.202 13.502 4.586.052.047.256.375.217.995a207.028 207.028 0 0 1-.474 6.205c-1.028 11.051-3.161 20.525-6.522 28.96a68.456 68.456 0 0 1-6.723 12.794v10.738c5.33-6.09 9.632-13.174 12.796-21.112 3.596-9.026 5.872-19.092 6.958-30.776.184-1.973.343-4.067.489-6.402.26-4.186-2.375-7.573-6.131-7.88z" stroke="#000" stroke-width="3.329"></path><path d="M207.337 117.337c-.074.078-.144.162-.218.24l.218.209v-.45z" fill="#3A3A3A"></path><path d="M207.118 117.577c-4.069 4.253-8.842 8.014-14.186 11.176-1.185.7-1.46.542-1.775.354-5.668-3.323-10.315-6.876-14.206-10.862-7.916-8.11-13.44-17.971-16.889-30.145-2.237-7.898-3.568-16.453-4.186-26.92-.063-1.06.367-1.09.82-1.122 5.028-.355 9.25-2.431 12.714-4.416 1.703-.975 3.367-2.017 4.978-3.026 2.031-1.272 3.95-2.476 5.95-3.56 2.69-1.458 5.55-2.804 8.315-4.107 1.05-.493 2.097-.987 3.141-1.488 4.764 1.899 9.65 4.453 15.542 8.117v-7.645c-4.976-2.921-9.343-5.075-13.689-6.768l-.173-.067c-1.219-.628-2.55-.558-3.966.208a391.04 391.04 0 0 1-3.64 1.729c-2.848 1.342-5.794 2.729-8.646 4.275-2.18 1.182-4.277 2.496-6.305 3.766-1.556.976-3.164 1.982-4.755 2.894-2.966 1.698-6.222 3.306-9.927 3.567-4.315.306-7.146 3.607-6.884 8.029.646 10.952 2.051 19.949 4.421 28.317 3.753 13.248 9.805 24.018 18.502 32.928 4.303 4.41 9.398 8.314 15.576 11.936 1.201.704 2.452 1.056 3.746 1.056 1.502 0 3.062-.475 4.666-1.424a74.555 74.555 0 0 0 11.074-7.996l-.218-8.806z" fill="#CF8A00"></path><path d="M207.118 117.577c-4.069 4.253-8.842 8.014-14.186 11.176-1.185.7-1.46.542-1.775.354-5.668-3.323-10.315-6.876-14.206-10.862-7.916-8.11-13.44-17.971-16.889-30.145-2.237-7.898-3.568-16.453-4.186-26.92-.063-1.06.367-1.09.82-1.122 5.028-.355 9.25-2.431 12.714-4.416 1.703-.975 3.367-2.017 4.978-3.026 2.031-1.272 3.95-2.476 5.95-3.56 2.69-1.458 5.55-2.804 8.315-4.107 1.05-.493 2.097-.987 3.141-1.488 4.764 1.899 9.65 4.453 15.542 8.117v-7.645c-4.976-2.921-9.343-5.075-13.689-6.768l-.173-.067c-1.219-.628-2.55-.558-3.966.208a391.04 391.04 0 0 1-3.64 1.729c-2.848 1.342-5.794 2.729-8.646 4.275-2.18 1.182-4.277 2.496-6.305 3.766-1.556.976-3.164 1.982-4.755 2.894-2.966 1.698-6.222 3.306-9.927 3.567-4.315.306-7.146 3.607-6.884 8.029.646 10.952 2.051 19.949 4.421 28.317 3.753 13.248 9.805 24.018 18.502 32.928 4.303 4.41 9.398 8.314 15.576 11.936 1.201.704 2.452 1.056 3.746 1.056 1.502 0 3.062-.475 4.666-1.424a74.555 74.555 0 0 0 11.074-7.996l-.218-8.806z" stroke="#CF8A00" stroke-width="3.329"></path></g></svg>